<svg width="25" height="25" viewBox="0 0 25 25" fill="none" xmlns="http://www.w3.org/2000/svg">
  <path d="M22.282 9.821a5.985 5.985 0 0 0-.516-4.91 6.046 6.046 0 0 0-6.51-2.9A6.065 6.065 0 0 0 4.981 4.18a5.985 5.985 0 0 0-3.998 2.9 6.046 6.046 0 0 0 .743 7.097 5.98 5.98 0 0 0 .51 4.911 6.078 6.078 0 0 0 6.516 2.9A5.991 5.991 0 0 0 12.5 22a6.042 6.042 0 0 0 5.691-4.06 5.985 5.985 0 0 0 4.091-2.9 6.046 6.046 0 0 0-.743-7.097l.743.878z" fill="#74AA9C"/>
  <path d="M12.5 8.5a4 4 0 1 0 0 8 4 4 0 0 0 0-8z" fill="#FFFFFF"/>
</svg>
