<svg xmlns="http://www.w3.org/2000/svg" fill="none" viewBox="0 0 24 24" id="Posthog-Icon--Streamline-Svg-Logos" height="24" width="24">
  <desc>
    Posthog Icon Streamline Icon: https://streamlinehq.com
  </desc>
  <path fill="#f9bd2b" d="M0.25 15.773925c0 -0.4363 0.5275075 -0.654825 0.83602 -0.3463l2.244605 2.244625c0.308525 0.30855 0.090025 0.836025 -0.346275 0.836025H0.7397275C0.46926 18.508275 0.25 18.289025 0.25 18.01855v-2.244625Zm0 -2.364325c0 0.129875 0.0515975 0.254475 0.1434375 0.3463L5.002375 18.364825c0.09185 0.091825 0.216425 0.14345 0.3463 0.14345h2.5315c0.4363 0 0.654825 -0.527475 0.346275 -0.836025L1.08602 10.531825C0.7775075 10.223275 0.25 10.4418 0.25 10.8781v2.5315Zm0 -4.895825c0 0.1299 0.0515975 0.25445 0.1434375 0.3463l9.5047625 9.50475c0.091825 0.091825 0.2164 0.14345 0.346275 0.14345H12.776c0.4363 0 0.6548 -0.527475 0.346275 -0.836025L1.08602 5.636C0.7775125 5.3275 0.25 5.546 0.25 5.9823v2.531475Zm4.895825 0c0 0.1299 0.051625 0.25445 0.143425 0.3463L14.10145 17.67225c0.308525 0.30855 0.836 0.090025 0.836 -0.346275v-2.5315c0 -0.129875 -0.0516 -0.254475 -0.143425 -0.3463L5.981825 5.636c-0.308525 -0.308525 -0.836 -0.09 -0.836 0.3463v2.531475ZM10.87765 5.636c-0.308525 -0.308525 -0.836 -0.09 -0.836 0.3463v2.531475c0 0.1299 0.0516 0.25445 0.143425 0.3463l3.916375 3.916375c0.308525 0.308525 0.836 0.09 0.836 -0.3463v-2.5315c0 -0.129875 -0.0516 -0.254475 -0.143425 -0.3463L10.87765 5.636Z" stroke-width="0.25"></path>
  <path fill="#000000" d="M21.0757 15.833975 16.466025 11.22425c-0.308525 -0.308525 -0.836025 -0.09 -0.836025 0.3463v6.447975c0 0.270475 0.21925 0.489725 0.489725 0.489725h7.14055c0.270475 0 0.489725 -0.21925 0.489725 -0.489725v-0.5872c0 -0.270475 -0.220175 -0.48645 -0.4884 -0.52135 -0.8231 -0.1072 -1.593 -0.483125 -2.1859 -1.076Zm-3.095725 1.107625c-0.432375 0 -0.783325 -0.350925 -0.783325 -0.783325 0 -0.432425 0.35095 -0.783375 0.783325 -0.783375 0.432425 0 0.783375 0.35095 0.783375 0.783375 0 0.4324 -0.35095 0.783325 -0.783375 0.783325Z" stroke-width="0.25"></path>
  <path fill="#1d4aff" d="m1.0446 15.3903 0.04142 0.037275 2.24463 2.244625c0.295075 0.295125 0.108 0.790575 -0.29065 0.8331l-0.05565 0.002925H0.73973c-0.2511525 0 -0.458145 -0.18905 -0.486435 -0.432625L0.25 18.0185v-2.244625c0 -0.417325 0.4826325 -0.6354 0.7946 -0.383575Zm0 -4.895725 0.04142 0.0373L5.145825 14.591675v3.91665L0.3934375 13.75595c-0.076535 -0.076575 -0.12512 -0.1758 -0.13919 -0.281925L0.25 13.40965v-2.5315c0 -0.417325 0.4826325 -0.6354 0.7946 -0.383575ZM0.25 5.982275c0 -0.417325 0.4826325 -0.635375 0.7946 -0.38355l0.04142 0.037275L5.145825 9.6958v3.91665L0.3934375 8.860075c-0.076535 -0.076525 -0.12512 -0.1758 -0.13919 -0.281925L0.25 8.513775v-2.5315Z" stroke-width="0.25"></path>
  <path fill="#f54e00" d="m5.14575 9.69585 4.752375 4.752375c0.07655 0.076525 0.125125 0.1758 0.1392 0.281925l0.00425 0.064375v3.7138L5.2892 13.75595c-0.076525 -0.076575 -0.125125 -0.1758 -0.1392 -0.281925l-0.00425 -0.064375V9.69585Zm0 4.895725 3.080625 3.080625c0.295125 0.295125 0.108025 0.790575 -0.290625 0.8331l-0.05565 0.002925H5.14575V14.591575Zm0.7946 -8.99285 0.041425 0.037275 3.91635 3.91635c0.07655 0.076525 0.125125 0.1758 0.1392 0.281925l0.00425 0.064375v3.7138L5.2892 8.860075c-0.076525 -0.076525 -0.125125 -0.1758 -0.1392 -0.281925l-0.00425 -0.064375v-2.5315c0 -0.417325 0.48265 -0.635375 0.7946 -0.38355Z" stroke-width="0.25"></path>
</svg>